<svg width="560" height="448" viewBox="0 0 560 448" fill="none" xmlns="http://www.w3.org/2000/svg">
<path d="M159.223 286.92C169.779 361.954 218.716 419.776 252.007 445.5C159.502 428.393 55.0108 305.052 103.568 149.545C125.448 79.4748 210.211 10.6337 283.969 4.76918M159.223 286.92C154.058 250.201 159.223 206.841 177.634 166.141C237.132 34.6052 377.704 22.3121 444.7 39.8297C408.916 17.063 348.402 -4.6904 283.969 4.76918M159.223 286.92C146.921 240.002 130.921 163.068 169.336 98.529C208.488 32.7537 261.432 20.1439 283.969 4.76918M372.171 233.138C351.888 210.088 300.872 212.547 281.203 234.982C267.97 250.076 260.48 266.668 260.88 284.154M372.171 233.138C359.264 214.698 310.706 171.114 252.007 211.932C205.601 244.202 231.724 314.579 269.217 323.185C265.358 314.26 261.235 299.716 260.88 284.154M372.171 233.138L350.966 253.114C338.673 244.202 312.55 234.982 292.267 244.202C273.913 252.544 263.147 272.681 260.88 284.154M212.362 246.968C217.996 269.607 237.87 317.776 272.29 329.331C316.238 344.085 340.722 320.828 353.425 309.355L384.772 335.785M212.362 246.968C215.64 269.607 215.899 312.679 272.29 346.234C309.477 368.361 363.976 349.717 384.772 335.785M212.362 246.968C205.779 278.212 206.267 346.234 260.88 368.361C315.493 390.489 366.23 355.864 384.772 335.785M393.992 413.43C356.092 422.344 316.778 413.501 293.496 401.86C325.048 410.67 405.977 403.704 438.861 325.336C445.919 308.515 449.169 292.445 449.585 277.393M393.992 413.43C431.802 404.537 468.205 377.971 485.882 318.882C507.395 246.968 438.349 166.141 388.152 166.141C414.702 180.864 451.11 222.315 449.585 277.393M393.992 413.43C407.515 404.144 430.871 383.42 443.472 356.376C456.072 329.331 450.518 293.989 449.585 277.393M231.724 207.937C251.802 172.492 317.406 105.167 413.046 128.032C508.686 150.897 532.596 244.202 532.596 300.442C560.563 253.114 547.04 108.978 431.485 79.4748C311.337 48.7987 240.329 145.55 231.724 207.937Z" stroke="#F8AF15" stroke-opacity="0.26" stroke-width="5"/>
<circle cx="499.405" cy="41.981" r="34.0718" stroke="#F8AF15" stroke-opacity="0.26" stroke-width="5"/>
<circle cx="528.294" cy="362.215" r="28.5399" stroke="#F8AF15" stroke-opacity="0.26" stroke-width="5"/>
<circle cx="52.2455" cy="103.754" r="49.7455" stroke="#F8AF15" stroke-opacity="0.26" stroke-width="5"/>
</svg>
